<svg width="440" height="432" viewBox="0 0 440 432" fill="none" xmlns="http://www.w3.org/2000/svg">
<g clip-path="url(#clip0_5_16471)">
<path d="M334.661 2C237.441 49.9446 140.22 97.8966 43 145.849C43.0294 154.807 43.0515 163.774 43.081 172.733C43.0515 172.747 43.0294 172.762 43 172.777C43.0294 182.739 43.0589 192.702 43.0957 202.664C43.0662 202.679 43.0294 202.694 43 202.708C43.0294 211.667 43.0515 220.633 43.081 229.592C43.0515 229.607 43.0294 229.622 43 229.636C43.1251 271.611 43.2576 313.592 43.3901 355.567C63.7499 372.071 84.1096 388.568 104.477 405.072C111.771 401.197 119.073 397.322 126.367 393.447C143.768 406.295 161.169 419.151 178.57 432C198.318 402.12 218.06 372.24 237.809 342.352C291.203 314.779 344.598 287.206 398 259.634V47.7543C376.889 32.5029 355.772 17.2514 334.661 2ZM131.019 369.954L125.079 378.766H124.248C124.041 375.17 123.828 371.573 123.622 367.976C123.063 358.292 122.503 348.615 121.944 338.938C121.495 331.239 121.053 323.533 120.604 315.834C120.508 315.856 120.413 315.856 120.324 315.9L85.7584 333.049L62.8519 344.41L53.386 349.106V153.291L330.105 16.0135V211.828L191.12 280.775C175.574 303.842 160.035 326.903 144.49 349.97C140 356.629 135.509 363.295 131.019 369.954Z" fill="#AE7AFF"/>
<path d="M86.0676 224.098V182.388L70.6543 190.006V170.623L123.784 144.369V163.752L108.326 171.385V213.096L86.0603 224.098H86.0676Z" fill="#AE7AFF"/>
<path d="M86.0676 224.098V182.388L70.6543 190.006V170.623L123.784 144.369V163.752L108.326 171.385V213.096L86.0603 224.098H86.0676Z" fill="white" fill-opacity="0.8"/>
<path d="M131.748 201.521V140.42L154.014 129.418V190.519L131.748 201.521Z" fill="#AE7AFF"/>
<path d="M131.748 201.521V140.42L154.014 129.418V190.519L131.748 201.521Z" fill="white" fill-opacity="0.8"/>
<path d="M203.883 165.876C201.175 161.305 198.937 158.031 197.185 156.046C195.433 154.06 193.733 152.866 192.091 152.471C190.45 152.075 188.448 152.376 186.078 153.379V174.681L163.812 185.684V124.583L186.078 113.58V133.864C188.22 132.612 190.03 131.015 191.517 129.088C193.004 127.162 194.498 124.473 196.015 121.03C197.524 117.587 199.437 112.518 201.749 105.837L226.238 93.7358C224.464 98.5852 222.911 102.687 221.571 106.035C220.231 109.383 218.87 112.46 217.486 115.258C216.102 118.056 214.814 120.364 213.629 122.166C212.444 123.975 211.097 125.653 209.58 127.213C208.064 128.766 206.54 130.084 205.002 131.161C203.464 132.238 201.624 133.344 199.482 134.487V139.512C201.933 138.413 204.06 137.608 205.863 137.087C207.659 136.567 209.419 136.326 211.126 136.362C212.841 136.399 214.365 136.721 215.705 137.337C217.044 137.952 218.457 138.985 219.944 140.442C221.431 141.9 222.874 143.644 224.287 145.687C225.7 147.731 227.305 150.31 229.101 153.423L203.883 165.884V165.876Z" fill="#AE7AFF"/>
<path d="M203.883 165.876C201.175 161.305 198.937 158.031 197.185 156.046C195.433 154.06 193.733 152.866 192.091 152.471C190.45 152.075 188.448 152.376 186.078 153.379V174.681L163.812 185.684V124.583L186.078 113.58V133.864C188.22 132.612 190.03 131.015 191.517 129.088C193.004 127.162 194.498 124.473 196.015 121.03C197.524 117.587 199.437 112.518 201.749 105.837L226.238 93.7358C224.464 98.5852 222.911 102.687 221.571 106.035C220.231 109.383 218.87 112.46 217.486 115.258C216.102 118.056 214.814 120.364 213.629 122.166C212.444 123.975 211.097 125.653 209.58 127.213C208.064 128.766 206.54 130.084 205.002 131.161C203.464 132.238 201.624 133.344 199.482 134.487V139.512C201.933 138.413 204.06 137.608 205.863 137.087C207.659 136.567 209.419 136.326 211.126 136.362C212.841 136.399 214.365 136.721 215.705 137.337C217.044 137.952 218.457 138.985 219.944 140.442C221.431 141.9 222.874 143.644 224.287 145.687C225.7 147.731 227.305 150.31 229.101 153.423L203.883 165.884V165.876Z" fill="white" fill-opacity="0.8"/>
<path d="M229.785 132.67V119.206L260.354 104.101V117.565L229.785 132.67Z" fill="#AE7AFF"/>
<path d="M229.785 132.67V119.206L260.354 104.101V117.565L229.785 132.67Z" fill="white" fill-opacity="0.8"/>
<path d="M86.0676 307.608V265.897L70.6543 273.516V254.133L123.784 227.878V247.261L108.326 254.894V296.605L86.0603 307.608H86.0676Z" fill="#AE7AFF"/>
<path d="M86.0676 307.608V265.897L70.6543 273.516V254.133L123.784 227.878V247.261L108.326 254.894V296.605L86.0603 307.608H86.0676Z" fill="white" fill-opacity="0.8"/>
<path d="M145.064 278.453L122.032 289.836L143.224 218.267L169.722 205.169L190.914 255.795L167.882 267.179L165.784 261.311L147.162 270.512L145.064 278.453ZM150.886 253.678L162.104 248.133C161.044 244.705 160.315 241.694 159.896 239.086C159.484 236.478 159.219 233.028 159.101 228.743L153.838 231.343C153.691 235.79 153.433 239.511 153.043 242.514C152.653 245.518 151.939 249.239 150.879 253.678H150.886Z" fill="#AE7AFF"/>
<path d="M145.064 278.453L122.032 289.836L143.224 218.267L169.722 205.169L190.914 255.795L167.882 267.179L165.784 261.311L147.162 270.512L145.064 278.453ZM150.886 253.678L162.104 248.133C161.044 244.705 160.315 241.694 159.896 239.086C159.484 236.478 159.219 233.028 159.101 228.743L153.838 231.343C153.691 235.79 153.433 239.511 153.043 242.514C152.653 245.518 151.939 249.239 150.879 253.678H150.886Z" fill="white" fill-opacity="0.8"/>
<path d="M197.163 252.711V191.61L219.429 180.608V222.318L240.532 211.887V231.27L197.163 252.697V252.711Z" fill="#AE7AFF"/>
<path d="M197.163 252.711V191.61L219.429 180.608V222.318L240.532 211.887V231.27L197.163 252.697V252.711Z" fill="white" fill-opacity="0.8"/>
<path d="M288.443 207.609C285.734 203.038 283.496 199.763 281.745 197.778C279.993 195.793 278.292 194.599 276.651 194.203C275.01 193.808 273.007 194.108 270.637 195.112V216.414L248.371 227.417V166.316L270.637 155.313V175.597C272.779 174.344 274.59 172.747 276.077 170.821C277.564 168.894 279.058 166.206 280.574 162.763C282.083 159.32 283.997 154.251 286.308 147.57L310.797 135.469C309.023 140.318 307.47 144.42 306.131 147.768C304.791 151.116 303.429 154.192 302.045 156.99C300.662 159.789 299.373 162.096 298.196 163.898C297.011 165.708 295.664 167.385 294.147 168.946C292.631 170.498 291.107 171.817 289.569 172.894C288.031 173.971 286.19 175.077 284.048 176.22V181.245C286.5 180.146 288.627 179.34 290.43 178.82C292.226 178.3 293.985 178.058 295.693 178.095C297.408 178.132 298.932 178.454 300.271 179.069C301.611 179.685 303.024 180.717 304.511 182.175C305.998 183.633 307.441 185.376 308.854 187.42C310.267 189.464 311.872 192.042 313.668 195.156L288.45 207.616L288.443 207.609Z" fill="#AE7AFF"/>
<path d="M288.443 207.609C285.734 203.038 283.496 199.763 281.745 197.778C279.993 195.793 278.292 194.599 276.651 194.203C275.01 193.808 273.007 194.108 270.637 195.112V216.414L248.371 227.417V166.316L270.637 155.313V175.597C272.779 174.344 274.59 172.747 276.077 170.821C277.564 168.894 279.058 166.206 280.574 162.763C282.083 159.32 283.997 154.251 286.308 147.57L310.797 135.469C309.023 140.318 307.47 144.42 306.131 147.768C304.791 151.116 303.429 154.192 302.045 156.99C300.662 159.789 299.373 162.096 298.196 163.898C297.011 165.708 295.664 167.385 294.147 168.946C292.631 170.498 291.107 171.817 289.569 172.894C288.031 173.971 286.19 175.077 284.048 176.22V181.245C286.5 180.146 288.627 179.34 290.43 178.82C292.226 178.3 293.985 178.058 295.693 178.095C297.408 178.132 298.932 178.454 300.271 179.069C301.611 179.685 303.024 180.717 304.511 182.175C305.998 183.633 307.441 185.376 308.854 187.42C310.267 189.464 311.872 192.042 313.668 195.156L288.45 207.616L288.443 207.609Z" fill="white" fill-opacity="0.8"/>
<g clip-path="url(#clip1_5_16471)">
<mask id="mask0_5_16471" style="mask-type:luminance" maskUnits="userSpaceOnUse" x="53" y="9" width="63" height="63">
<path d="M115 9.4999L53 9.67432L53.1744 71.6741L115.174 71.4997L115 9.4999Z" fill="white"/>
</mask>
<g mask="url(#mask0_5_16471)">
<path d="M84.1743 71.5869C83.1942 42.2207 82.4584 41.4937 53.0872 40.6742C82.4533 39.6941 83.1805 38.9583 83.9999 9.58711C84.9799 38.9532 85.7158 39.6804 115.087 40.4998C85.7208 41.4845 84.9937 42.2067 84.1743 71.5869Z" fill="#AE7AFF"/>
</g>
</g>
</g>
<g clip-path="url(#clip2_5_16471)">
<mask id="mask1_5_16471" style="mask-type:luminance" maskUnits="userSpaceOnUse" x="299" y="343" width="79" height="79">
<path d="M377 343.5L299 343.719L299.219 421.719L377.219 421.5L377 343.5Z" fill="white"/>
</mask>
<g mask="url(#mask1_5_16471)">
<path d="M338 343.61C339.383 364.572 356.139 381.235 377.109 382.5C356.147 383.883 339.484 400.639 338.219 421.609C336.836 400.647 320.08 383.984 299.11 382.719C320.072 381.336 336.735 364.58 338 343.61Z" fill="#AE7AFF"/>
</g>
</g>
<defs>
<clipPath id="clip0_5_16471">
<rect width="355" height="430" fill="white" transform="translate(43 1.5)"/>
</clipPath>
<clipPath id="clip1_5_16471">
<rect width="62" height="62" fill="white" transform="translate(53 9.67432) rotate(-0.161186)"/>
</clipPath>
<clipPath id="clip2_5_16471">
<rect width="78" height="78" fill="white" transform="translate(299 343.719) rotate(-0.161186)"/>
</clipPath>
</defs>
</svg>
